<?xml version="1.0" encoding="utf-8"?>
<!-- Generator: Adobe Illustrator 26.0.3, SVG Export Plug-In . SVG Version: 6.00 Build 0)  -->
<svg version="1.0" id="katman_1" xmlns="http://www.w3.org/2000/svg" xmlns:xlink="http://www.w3.org/1999/xlink" x="0px" y="0px"
	 viewBox="0 0 600 450" style="enable-background:new 0 0 600 450;" xml:space="preserve">
<style type="text/css">
	.st0{fill:#5696D1;}
</style>
<g id="Page-1">
	<g id="HOMEPAGE-REFRESH">
		<g id="watch-_x28_1_x29_">
			<path id="Shape" class="st0" d="M313.1,222.1h-15.4v-21.8c0-2.5-2.1-4.6-4.7-4.6c-2.6,0-4.7,2-4.7,4.6v26.4
				c0,2.5,2.1,4.6,4.7,4.6h20.1c2.6,0,4.7-2,4.7-4.6C317.9,224.2,315.8,222.1,313.1,222.1L313.1,222.1z"/>
			<path id="Shape_00000121982006703811842490000014027596016899035789_" class="st0" d="M406.7,203.9h-7.5
				c-2.8-14.2-8.4-27.5-16.2-39.1l-20.1-62.4c-1.1-3.5-4.3-5.8-8-5.8h-1.3v-25c0-6.5-5.3-11.8-11.7-11.8H241.2
				c-6.5,0-11.8,5.3-11.8,11.8v25h-1.3c-3.7,0-6.9,2.3-8,5.8L200,164.7c-11.6,17.4-18.3,38.2-18.3,60.6c0,22.8,7,44,18.9,61.6
				l19.5,60.5c1.1,3.5,4.3,5.8,8,5.8h1.3v26c0,6.5,5.3,11.8,11.8,11.8h100.7c6.5,0,11.8-5.3,11.8-11.8v-26h1.3c3.6,0,6.9-2.3,8-5.8
				l19.5-60.5c8.1-11.9,13.9-25.5,16.8-40h7.5c6.5,0,11.8-5.3,11.8-11.8v-19.3C418.5,209.2,413.2,203.9,406.7,203.9L406.7,203.9z
				 M239.5,71.5c0-0.9,0.8-1.7,1.7-1.7h100.7c0.9,0,1.7,0.8,1.7,1.7v6.8h-104V71.5z M229.4,106.7h77.5c2.8,0,5-2.3,5-5.1
				c0-2.8-2.2-5.1-5-5.1h-67.3v-8.1h104v8.1h-17.2c-2.8,0-5,2.3-5,5.1c0,2.8,2.2,5.1,5,5.1h27.4l12.3,38.1
				c-19.6-18.1-45.8-29.2-74.5-29.2s-54.9,11.1-74.5,29.2L229.4,106.7L229.4,106.7z M191.8,225.4c0-10.4,1.6-20.5,4.6-30l15.1,8.8
				c-1.8,6.8-2.8,13.9-2.8,21.2s1,14.4,2.8,21.2l-15.1,8.8C193.4,245.9,191.8,235.8,191.8,225.4L191.8,225.4z M343.6,362.3h-51.5
				c-2.8,0-5,2.3-5,5.1s2.2,5.1,5,5.1h51.5v6.8c0,0.9-0.8,1.7-1.7,1.7H241.2c-0.9,0-1.7-0.8-1.7-1.7v-6.8h31.7c2.8,0,5-2.3,5-5.1
				c0-2.8-2.2-5.1-5-5.1h-31.7v-9.1h104L343.6,362.3C343.6,362.3,343.6,362.3,343.6,362.3z M353.7,343.1H229.4l-11.8-36.7
				c19.5,17.9,45.5,28.8,74,28.8c28.5,0,54.5-10.9,74-28.8L353.7,343.1L353.7,343.1z M291.6,325c-40.9,0-76.2-24.8-91.5-60.1
				l14.8-8.6c12.3,30.3,42.1,51.8,76.7,51.8c9,0,17.8-1.4,26.3-4.3c2.6-0.9,4.1-3.8,3.2-6.4c-0.9-2.7-3.7-4.1-6.4-3.2
				c-6,2-12.3,3.2-18.7,3.6v-4.3c0-2.8-2.2-5.1-5-5.1c-2.8,0-5,2.3-5,5.1v4.2c-16.2-1.3-31-7.9-42.5-18.1l3-3c2-2,2-5.2,0-7.2
				c-2-2-5.1-2-7.1,0l-3,3c-10-11.7-16.3-26.5-17.3-42.7h4.3c2.8,0,5-2.3,5-5.1c0-2.8-2.2-5.1-5-5.1h-4.2
				c1.3-16.2,7.9-30.9,18.1-42.4l3,3c1,1,2.3,1.5,3.6,1.5c1.3,0,2.6-0.5,3.6-1.5c2-2,1.9-5.2,0-7.2l-2.9-2.9
				c11.7-10,26.5-16.3,42.8-17.3v4.3c0,2.8,2.2,5.1,5,5.1s5-2.3,5-5.1V153c16.2,1.3,31,7.9,42.5,18.1l-3,3c-2,2-2,5.2,0,7.2
				c1,1,2.3,1.5,3.6,1.5c1.3,0,2.6-0.5,3.6-1.5l3-3c10,11.6,16.3,26.5,17.3,42.7h-4.3c-2.8,0-5,2.3-5,5.1c0,2.8,2.2,5.1,5,5.1h4.2
				c-1.2,15.9-7.6,30.7-18.1,42.4l-3-3c-2-2-5.2-2-7.1,0c-2,2-2,5.2,0,7.2l2.9,2.9c-2.4,2.1-5,4-7.8,5.8c-2.3,1.5-3,4.7-1.5,7
				c1.5,2.4,4.6,3,7,1.5c23.7-15.4,37.9-41.4,37.9-69.5c0-45.7-37.1-82.8-82.8-82.8c-34.7,0-64.5,21.4-76.7,51.8l-14.7-8.6
				c15.4-35.3,50.6-60.1,91.5-60.1c55,0,99.7,44.7,99.7,99.7S346.5,325,291.6,325z M408.4,235c0,0.9-0.8,1.7-1.7,1.7h-6
				c0.4-3.7,0.6-7.5,0.6-11.4c0-3.8-0.2-7.6-0.6-11.4h6c0.9,0,1.7,0.8,1.7,1.7V235L408.4,235z"/>
		</g>
	</g>
</g>
</svg>
